# xmcd CD database file
#
# Track frame offsets:
#	150
#	50555
#	78272
#	117055
#	153812
#	198810
#
# Disc length: 2977 seconds
#
# Revision: 0
# Processed by: cddbd v1.5PL3 Copyright (c) Steve Scherf et al.
# Submitted via: CDex 1.51
#
DISCID=3b0b9f06
DTITLE=Mori Shinji Trio - Sweet Pumpkin - Mori Shinji Trio Live At Hasami -
DYEAR=1987
DGENRE=Jazz
TTITLE0=Sweet Pumpkin
TTITLE1=If You Could See Me Now
TTITLE2=Dahoud
TTITLE3=Round Midnight
TTITLE4=Without A Song
TTITLE5=One For Amos
EXTD=YEAR: 1987
EXTT0=
EXTT1=
EXTT2=
EXTT3=
EXTT4=
EXTT5=
PLAYORDER=
